<svg class="rich-terminal" viewBox="0 0 1190 733.1999999999999" xmlns="http://www.w3.org/2000/svg">
    <!-- Generated with Rich https://www.textualize.io -->
    <style>

    @font-face {
        font-family: "Fira Code";
        src: local("FiraCode-Regular"),
                url("https://cdnjs.cloudflare.com/ajax/libs/firacode/6.2.0/woff2/FiraCode-Regular.woff2") format("woff2"),
                url("https://cdnjs.cloudflare.com/ajax/libs/firacode/6.2.0/woff/FiraCode-Regular.woff") format("woff");
        font-style: normal;
        font-weight: 400;
    }
    @font-face {
        font-family: "Fira Code";
        src: local("FiraCode-Bold"),
                url("https://cdnjs.cloudflare.com/ajax/libs/firacode/6.2.0/woff2/FiraCode-Bold.woff2") format("woff2"),
                url("https://cdnjs.cloudflare.com/ajax/libs/firacode/6.2.0/woff/FiraCode-Bold.woff") format("woff");
        font-style: bold;
        font-weight: 700;
    }

    .terminal-1336425759-matrix {
        font-family: Fira Code, monospace;
        font-size: 20px;
        line-height: 24.4px;
        font-variant-east-asian: full-width;
    }

    .terminal-1336425759-title {
        font-size: 18px;
        font-weight: bold;
        font-family: arial;
    }

    .terminal-1336425759-r1 { fill: #c5c8c6 }
.terminal-1336425759-r2 { fill: #e0e0e0 }
.terminal-1336425759-r3 { fill: #c5c6c7 }
.terminal-1336425759-r4 { fill: #121212 }
.terminal-1336425759-r5 { fill: #e1e1e1 }
.terminal-1336425759-r6 { fill: #797979 }
.terminal-1336425759-r7 { fill: #ddedf9;font-weight: bold }
.terminal-1336425759-r8 { fill: #4f4f4f }
.terminal-1336425759-r9 { fill: #0178d4 }
.terminal-1336425759-r10 { fill: #e0e0e0;font-weight: bold }
.terminal-1336425759-r11 { fill: #98e024 }
.terminal-1336425759-r12 { fill: #fd971f }
.terminal-1336425759-r13 { fill: #2d2d2d }
.terminal-1336425759-r14 { fill: #ffa62b;font-weight: bold }
.terminal-1336425759-r15 { fill: #495259 }
.terminal-1336425759-r16 { fill: #000000 }
    </style>

    <defs>
    <clipPath id="terminal-1336425759-clip-terminal">
      <rect x="0" y="0" width="1170.1999999999998" height="682.1999999999999" />
    </clipPath>
    <clipPath id="terminal-1336425759-line-0">
    <rect x="0" y="1.5" width="1171.2" height="24.65"/>
            </clipPath>
<clipPath id="terminal-1336425759-line-1">
    <rect x="0" y="25.9" width="1171.2" height="24.65"/>
            </clipPath>
<clipPath id="terminal-1336425759-line-2">
    <rect x="0" y="50.3" width="1171.2" height="24.65"/>
            </clipPath>
<clipPath id="terminal-1336425759-line-3">
    <rect x="0" y="74.7" width="1171.2" height="24.65"/>
            </clipPath>
<clipPath id="terminal-1336425759-line-4">
    <rect x="0" y="99.1" width="1171.2" height="24.65"/>
            </clipPath>
<clipPath id="terminal-1336425759-line-5">
    <rect x="0" y="123.5" width="1171.2" height="24.65"/>
            </clipPath>
<clipPath id="terminal-1336425759-line-6">
    <rect x="0" y="147.9" width="1171.2" height="24.65"/>
            </clipPath>
<clipPath id="terminal-1336425759-line-7">
    <rect x="0" y="172.3" width="1171.2" height="24.65"/>
            </clipPath>
<clipPath id="terminal-1336425759-line-8">
    <rect x="0" y="196.7" width="1171.2" height="24.65"/>
            </clipPath>
<clipPath id="terminal-1336425759-line-9">
    <rect x="0" y="221.1" width="1171.2" height="24.65"/>
            </clipPath>
<clipPath id="terminal-1336425759-line-10">
    <rect x="0" y="245.5" width="1171.2" height="24.65"/>
            </clipPath>
<clipPath id="terminal-1336425759-line-11">
    <rect x="0" y="269.9" width="1171.2" height="24.65"/>
            </clipPath>
<clipPath id="terminal-1336425759-line-12">
    <rect x="0" y="294.3" width="1171.2" height="24.65"/>
            </clipPath>
<clipPath id="terminal-1336425759-line-13">
    <rect x="0" y="318.7" width="1171.2" height="24.65"/>
            </clipPath>
<clipPath id="terminal-1336425759-line-14">
    <rect x="0" y="343.1" width="1171.2" height="24.65"/>
            </clipPath>
<clipPath id="terminal-1336425759-line-15">
    <rect x="0" y="367.5" width="1171.2" height="24.65"/>
            </clipPath>
<clipPath id="terminal-1336425759-line-16">
    <rect x="0" y="391.9" width="1171.2" height="24.65"/>
            </clipPath>
<clipPath id="terminal-1336425759-line-17">
    <rect x="0" y="416.3" width="1171.2" height="24.65"/>
            </clipPath>
<clipPath id="terminal-1336425759-line-18">
    <rect x="0" y="440.7" width="1171.2" height="24.65"/>
            </clipPath>
<clipPath id="terminal-1336425759-line-19">
    <rect x="0" y="465.1" width="1171.2" height="24.65"/>
            </clipPath>
<clipPath id="terminal-1336425759-line-20">
    <rect x="0" y="489.5" width="1171.2" height="24.65"/>
            </clipPath>
<clipPath id="terminal-1336425759-line-21">
    <rect x="0" y="513.9" width="1171.2" height="24.65"/>
            </clipPath>
<clipPath id="terminal-1336425759-line-22">
    <rect x="0" y="538.3" width="1171.2" height="24.65"/>
            </clipPath>
<clipPath id="terminal-1336425759-line-23">
    <rect x="0" y="562.7" width="1171.2" height="24.65"/>
            </clipPath>
<clipPath id="terminal-1336425759-line-24">
    <rect x="0" y="587.1" width="1171.2" height="24.65"/>
            </clipPath>
<clipPath id="terminal-1336425759-line-25">
    <rect x="0" y="611.5" width="1171.2" height="24.65"/>
            </clipPath>
<clipPath id="terminal-1336425759-line-26">
    <rect x="0" y="635.9" width="1171.2" height="24.65"/>
            </clipPath>
    </defs>

    <rect fill="#292929" stroke="rgba(255,255,255,0.35)" stroke-width="1" x="1" y="1" width="1188" height="731.2" rx="8"/><text class="terminal-1336425759-title" fill="#c5c8c6" text-anchor="middle" x="594" y="27">AcTuiSense&#160;—&#160;Activity&#160;Log</text>
            <g transform="translate(26,22)">
            <circle cx="0" cy="0" r="7" fill="#ff5f57"/>
            <circle cx="22" cy="0" r="7" fill="#febc2e"/>
            <circle cx="44" cy="0" r="7" fill="#28c840"/>
            </g>
        
    <g transform="translate(9, 41)" clip-path="url(#terminal-1336425759-clip-terminal)">
    <rect fill="#242f38" x="0" y="1.5" width="12.2" height="24.65" shape-rendering="crispEdges"/><rect fill="#242f38" x="12.2" y="1.5" width="12.2" height="24.65" shape-rendering="crispEdges"/><rect fill="#242f38" x="24.4" y="1.5" width="61" height="24.65" shape-rendering="crispEdges"/><rect fill="#242f38" x="85.4" y="1.5" width="12.2" height="24.65" shape-rendering="crispEdges"/><rect fill="#242f38" x="97.6" y="1.5" width="402.6" height="24.65" shape-rendering="crispEdges"/><rect fill="#242f38" x="500.2" y="1.5" width="122" height="24.65" shape-rendering="crispEdges"/><rect fill="#242f38" x="622.2" y="1.5" width="402.6" height="24.65" shape-rendering="crispEdges"/><rect fill="#2c363f" x="1024.8" y="1.5" width="12.2" height="24.65" shape-rendering="crispEdges"/><rect fill="#2c363f" x="1037" y="1.5" width="97.6" height="24.65" shape-rendering="crispEdges"/><rect fill="#2c363f" x="1134.6" y="1.5" width="12.2" height="24.65" shape-rendering="crispEdges"/><rect fill="#003054" x="1146.8" y="1.5" width="24.4" height="24.65" shape-rendering="crispEdges"/><rect fill="#1b1b1b" x="0" y="25.9" width="12.2" height="24.65" shape-rendering="crispEdges"/><rect fill="#1b1b1b" x="12.2" y="25.9" width="585.6" height="24.65" shape-rendering="crispEdges"/><rect fill="#1b1b1b" x="597.8" y="25.9" width="12.2" height="24.65" shape-rendering="crispEdges"/><rect fill="#121212" x="610" y="25.9" width="536.8" height="24.65" shape-rendering="crispEdges"/><rect fill="#003054" x="1146.8" y="25.9" width="24.4" height="24.65" shape-rendering="crispEdges"/><rect fill="#121212" x="0" y="50.3" width="12.2" height="24.65" shape-rendering="crispEdges"/><rect fill="#121212" x="12.2" y="50.3" width="122" height="24.65" shape-rendering="crispEdges"/><rect fill="#121212" x="134.2" y="50.3" width="12.2" height="24.65" shape-rendering="crispEdges"/><rect fill="#0178d4" x="146.4" y="50.3" width="12.2" height="24.65" shape-rendering="crispEdges"/><rect fill="#0178d4" x="158.6" y="50.3" width="146.4" height="24.65" shape-rendering="crispEdges"/><rect fill="#0178d4" x="305" y="50.3" width="12.2" height="24.65" shape-rendering="crispEdges"/><rect fill="#121212" x="317.2" y="50.3" width="829.6" height="24.65" shape-rendering="crispEdges"/><rect fill="#003054" x="1146.8" y="50.3" width="24.4" height="24.65" shape-rendering="crispEdges"/><rect fill="#121212" x="0" y="74.7" width="12.2" height="24.65" shape-rendering="crispEdges"/><rect fill="#121212" x="12.2" y="74.7" width="122" height="24.65" shape-rendering="crispEdges"/><rect fill="#121212" x="134.2" y="74.7" width="12.2" height="24.65" shape-rendering="crispEdges"/><rect fill="#121212" x="146.4" y="74.7" width="1000.4" height="24.65" shape-rendering="crispEdges"/><rect fill="#003054" x="1146.8" y="74.7" width="24.4" height="24.65" shape-rendering="crispEdges"/><rect fill="#242f38" x="0" y="99.1" width="97.6" height="24.65" shape-rendering="crispEdges"/><rect fill="#242f38" x="97.6" y="99.1" width="146.4" height="24.65" shape-rendering="crispEdges"/><rect fill="#242f38" x="244" y="99.1" width="439.2" height="24.65" shape-rendering="crispEdges"/><rect fill="#242f38" x="683.2" y="99.1" width="146.4" height="24.65" shape-rendering="crispEdges"/><rect fill="#242f38" x="829.6" y="99.1" width="97.6" height="24.65" shape-rendering="crispEdges"/><rect fill="#242f38" x="927.2" y="99.1" width="219.6" height="24.65" shape-rendering="crispEdges"/><rect fill="#003054" x="1146.8" y="99.1" width="24.4" height="24.65" shape-rendering="crispEdges"/><rect fill="#153854" x="0" y="123.5" width="97.6" height="24.65" shape-rendering="crispEdges"/><rect fill="#153854" x="97.6" y="123.5" width="146.4" height="24.65" shape-rendering="crispEdges"/><rect fill="#153854" x="244" y="123.5" width="439.2" height="24.65" shape-rendering="crispEdges"/><rect fill="#153854" x="683.2" y="123.5" width="146.4" height="24.65" shape-rendering="crispEdges"/><rect fill="#153854" x="829.6" y="123.5" width="97.6" height="24.65" shape-rendering="crispEdges"/><rect fill="#153854" x="927.2" y="123.5" width="219.6" height="24.65" shape-rendering="crispEdges"/><rect fill="#003054" x="1146.8" y="123.5" width="24.4" height="24.65" shape-rendering="crispEdges"/><rect fill="#1e1e1e" x="0" y="147.9" width="97.6" height="24.65" shape-rendering="crispEdges"/><rect fill="#1e1e1e" x="97.6" y="147.9" width="146.4" height="24.65" shape-rendering="crispEdges"/><rect fill="#1e1e1e" x="244" y="147.9" width="439.2" height="24.65" shape-rendering="crispEdges"/><rect fill="#1e1e1e" x="683.2" y="147.9" width="12.2" height="24.65" shape-rendering="crispEdges"/><rect fill="#1e1e1e" x="695.4" y="147.9" width="24.4" height="24.65" shape-rendering="crispEdges"/><rect fill="#1e1e1e" x="719.8" y="147.9" width="109.8" height="24.65" shape-rendering="crispEdges"/><rect fill="#1e1e1e" x="829.6" y="147.9" width="97.6" height="24.65" shape-rendering="crispEdges"/><rect fill="#1e1e1e" x="927.2" y="147.9" width="219.6" height="24.65" shape-rendering="crispEdges"/><rect fill="#003054" x="1146.8" y="147.9" width="24.4" height="24.65" shape-rendering="crispEdges"/><rect fill="#171717" x="0" y="172.3" width="97.6" height="24.65" shape-rendering="crispEdges"/><rect fill="#171717" x="97.6" y="172.3" width="146.4" height="24.65" shape-rendering="crispEdges"/><rect fill="#171717" x="244" y="172.3" width="439.2" height="24.65" shape-rendering="crispEdges"/><rect fill="#171717" x="683.2" y="172.3" width="12.2" height="24.65" shape-rendering="crispEdges"/><rect fill="#171717" x="695.4" y="172.3" width="24.4" height="24.65" shape-rendering="crispEdges"/><rect fill="#171717" x="719.8" y="172.3" width="109.8" height="24.65" shape-rendering="crispEdges"/><rect fill="#171717" x="829.6" y="172.3" width="97.6" height="24.65" shape-rendering="crispEdges"/><rect fill="#171717" x="927.2" y="172.3" width="219.6" height="24.65" shape-rendering="crispEdges"/><rect fill="#003054" x="1146.8" y="172.3" width="24.4" height="24.65" shape-rendering="crispEdges"/><rect fill="#1e1e1e" x="0" y="196.7" width="97.6" height="24.65" shape-rendering="crispEdges"/><rect fill="#1e1e1e" x="97.6" y="196.7" width="146.4" height="24.65" shape-rendering="crispEdges"/><rect fill="#1e1e1e" x="244" y="196.7" width="439.2" height="24.65" shape-rendering="crispEdges"/><rect fill="#1e1e1e" x="683.2" y="196.7" width="12.2" height="24.65" shape-rendering="crispEdges"/><rect fill="#1e1e1e" x="695.4" y="196.7" width="24.4" height="24.65" shape-rendering="crispEdges"/><rect fill="#1e1e1e" x="719.8" y="196.7" width="109.8" height="24.65" shape-rendering="crispEdges"/><rect fill="#1e1e1e" x="829.6" y="196.7" width="97.6" height="24.65" shape-rendering="crispEdges"/><rect fill="#1e1e1e" x="927.2" y="196.7" width="219.6" height="24.65" shape-rendering="crispEdges"/><rect fill="#003054" x="1146.8" y="196.7" width="24.4" height="24.65" shape-rendering="crispEdges"/><rect fill="#171717" x="0" y="221.1" width="97.6" height="24.65" shape-rendering="crispEdges"/><rect fill="#171717" x="97.6" y="221.1" width="146.4" height="24.65" shape-rendering="crispEdges"/><rect fill="#171717" x="244" y="221.1" width="439.2" height="24.65" shape-rendering="crispEdges"/><rect fill="#171717" x="683.2" y="221.1" width="12.2" height="24.65" shape-rendering="crispEdges"/><rect fill="#171717" x="695.4" y="221.1" width="24.4" height="24.65" shape-rendering="crispEdges"/><rect fill="#171717" x="719.8" y="221.1" width="109.8" height="24.65" shape-rendering="crispEdges"/><rect fill="#171717" x="829.6" y="221.1" width="97.6" height="24.65" shape-rendering="crispEdges"/><rect fill="#171717" x="927.2" y="221.1" width="219.6" height="24.65" shape-rendering="crispEdges"/><rect fill="#003054" x="1146.8" y="221.1" width="24.4" height="24.65" shape-rendering="crispEdges"/><rect fill="#1e1e1e" x="0" y="245.5" width="97.6" height="24.65" shape-rendering="crispEdges"/><rect fill="#1e1e1e" x="97.6" y="245.5" width="146.4" height="24.65" shape-rendering="crispEdges"/><rect fill="#1e1e1e" x="244" y="245.5" width="439.2" height="24.65" shape-rendering="crispEdges"/><rect fill="#1e1e1e" x="683.2" y="245.5" width="12.2" height="24.65" shape-rendering="crispEdges"/><rect fill="#1e1e1e" x="695.4" y="245.5" width="24.4" height="24.65" shape-rendering="crispEdges"/><rect fill="#1e1e1e" x="719.8" y="245.5" width="109.8" height="24.65" shape-rendering="crispEdges"/><rect fill="#1e1e1e" x="829.6" y="245.5" width="97.6" height="24.65" shape-rendering="crispEdges"/><rect fill="#1e1e1e" x="927.2" y="245.5" width="219.6" height="24.65" shape-rendering="crispEdges"/><rect fill="#003054" x="1146.8" y="245.5" width="24.4" height="24.65" shape-rendering="crispEdges"/><rect fill="#171717" x="0" y="269.9" width="97.6" height="24.65" shape-rendering="crispEdges"/><rect fill="#171717" x="97.6" y="269.9" width="146.4" height="24.65" shape-rendering="crispEdges"/><rect fill="#171717" x="244" y="269.9" width="439.2" height="24.65" shape-rendering="crispEdges"/><rect fill="#171717" x="683.2" y="269.9" width="12.2" height="24.65" shape-rendering="crispEdges"/><rect fill="#171717" x="695.4" y="269.9" width="24.4" height="24.65" shape-rendering="crispEdges"/><rect fill="#171717" x="719.8" y="269.9" width="109.8" height="24.65" shape-rendering="crispEdges"/><rect fill="#171717" x="829.6" y="269.9" width="97.6" height="24.65" shape-rendering="crispEdges"/><rect fill="#171717" x="927.2" y="269.9" width="219.6" height="24.65" shape-rendering="crispEdges"/><rect fill="#003054" x="1146.8" y="269.9" width="24.4" height="24.65" shape-rendering="crispEdges"/><rect fill="#1e1e1e" x="0" y="294.3" width="97.6" height="24.65" shape-rendering="crispEdges"/><rect fill="#1e1e1e" x="97.6" y="294.3" width="146.4" height="24.65" shape-rendering="crispEdges"/><rect fill="#1e1e1e" x="244" y="294.3" width="439.2" height="24.65" shape-rendering="crispEdges"/><rect fill="#1e1e1e" x="683.2" y="294.3" width="12.2" height="24.65" shape-rendering="crispEdges"/><rect fill="#1e1e1e" x="695.4" y="294.3" width="24.4" height="24.65" shape-rendering="crispEdges"/><rect fill="#1e1e1e" x="719.8" y="294.3" width="109.8" height="24.65" shape-rendering="crispEdges"/><rect fill="#1e1e1e" x="829.6" y="294.3" width="97.6" height="24.65" shape-rendering="crispEdges"/><rect fill="#1e1e1e" x="927.2" y="294.3" width="219.6" height="24.65" shape-rendering="crispEdges"/><rect fill="#003054" x="1146.8" y="294.3" width="24.4" height="24.65" shape-rendering="crispEdges"/><rect fill="#171717" x="0" y="318.7" width="97.6" height="24.65" shape-rendering="crispEdges"/><rect fill="#171717" x="97.6" y="318.7" width="146.4" height="24.65" shape-rendering="crispEdges"/><rect fill="#171717" x="244" y="318.7" width="439.2" height="24.65" shape-rendering="crispEdges"/><rect fill="#171717" x="683.2" y="318.7" width="12.2" height="24.65" shape-rendering="crispEdges"/><rect fill="#171717" x="695.4" y="318.7" width="24.4" height="24.65" shape-rendering="crispEdges"/><rect fill="#171717" x="719.8" y="318.7" width="109.8" height="24.65" shape-rendering="crispEdges"/><rect fill="#171717" x="829.6" y="318.7" width="97.6" height="24.65" shape-rendering="crispEdges"/><rect fill="#171717" x="927.2" y="318.7" width="219.6" height="24.65" shape-rendering="crispEdges"/><rect fill="#003054" x="1146.8" y="318.7" width="24.4" height="24.65" shape-rendering="crispEdges"/><rect fill="#1e1e1e" x="0" y="343.1" width="97.6" height="24.65" shape-rendering="crispEdges"/><rect fill="#1e1e1e" x="97.6" y="343.1" width="146.4" height="24.65" shape-rendering="crispEdges"/><rect fill="#1e1e1e" x="244" y="343.1" width="439.2" height="24.65" shape-rendering="crispEdges"/><rect fill="#1e1e1e" x="683.2" y="343.1" width="12.2" height="24.65" shape-rendering="crispEdges"/><rect fill="#1e1e1e" x="695.4" y="343.1" width="24.4" height="24.65" shape-rendering="crispEdges"/><rect fill="#1e1e1e" x="719.8" y="343.1" width="109.8" height="24.65" shape-rendering="crispEdges"/><rect fill="#1e1e1e" x="829.6" y="343.1" width="97.6" height="24.65" shape-rendering="crispEdges"/><rect fill="#1e1e1e" x="927.2" y="343.1" width="219.6" height="24.65" shape-rendering="crispEdges"/><rect fill="#003054" x="1146.8" y="343.1" width="24.4" height="24.65" shape-rendering="crispEdges"/><rect fill="#171717" x="0" y="367.5" width="97.6" height="24.65" shape-rendering="crispEdges"/><rect fill="#171717" x="97.6" y="367.5" width="146.4" height="24.65" shape-rendering="crispEdges"/><rect fill="#171717" x="244" y="367.5" width="439.2" height="24.65" shape-rendering="crispEdges"/><rect fill="#171717" x="683.2" y="367.5" width="12.2" height="24.65" shape-rendering="crispEdges"/><rect fill="#171717" x="695.4" y="367.5" width="85.4" height="24.65" shape-rendering="crispEdges"/><rect fill="#171717" x="780.8" y="367.5" width="48.8" height="24.65" shape-rendering="crispEdges"/><rect fill="#171717" x="829.6" y="367.5" width="97.6" height="24.65" shape-rendering="crispEdges"/><rect fill="#171717" x="927.2" y="367.5" width="219.6" height="24.65" shape-rendering="crispEdges"/><rect fill="#003054" x="1146.8" y="367.5" width="24.4" height="24.65" shape-rendering="crispEdges"/><rect fill="#1e1e1e" x="0" y="391.9" width="97.6" height="24.65" shape-rendering="crispEdges"/><rect fill="#1e1e1e" x="97.6" y="391.9" width="146.4" height="24.65" shape-rendering="crispEdges"/><rect fill="#1e1e1e" x="244" y="391.9" width="439.2" height="24.65" shape-rendering="crispEdges"/><rect fill="#1e1e1e" x="683.2" y="391.9" width="12.2" height="24.65" shape-rendering="crispEdges"/><rect fill="#1e1e1e" x="695.4" y="391.9" width="24.4" height="24.65" shape-rendering="crispEdges"/><rect fill="#1e1e1e" x="719.8" y="391.9" width="109.8" height="24.65" shape-rendering="crispEdges"/><rect fill="#1e1e1e" x="829.6" y="391.9" width="97.6" height="24.65" shape-rendering="crispEdges"/><rect fill="#1e1e1e" x="927.2" y="391.9" width="219.6" height="24.65" shape-rendering="crispEdges"/><rect fill="#003054" x="1146.8" y="391.9" width="24.4" height="24.65" shape-rendering="crispEdges"/><rect fill="#1e1e1e" x="0" y="416.3" width="1146.8" height="24.65" shape-rendering="crispEdges"/><rect fill="#003054" x="1146.8" y="416.3" width="24.4" height="24.65" shape-rendering="crispEdges"/><rect fill="#1e1e1e" x="0" y="440.7" width="1146.8" height="24.65" shape-rendering="crispEdges"/><rect fill="#003054" x="1146.8" y="440.7" width="24.4" height="24.65" shape-rendering="crispEdges"/><rect fill="#1e1e1e" x="0" y="465.1" width="1146.8" height="24.65" shape-rendering="crispEdges"/><rect fill="#003054" x="1146.8" y="465.1" width="24.4" height="24.65" shape-rendering="crispEdges"/><rect fill="#1e1e1e" x="0" y="489.5" width="1146.8" height="24.65" shape-rendering="crispEdges"/><rect fill="#003054" x="1146.8" y="489.5" width="24.4" height="24.65" shape-rendering="crispEdges"/><rect fill="#1e1e1e" x="0" y="513.9" width="1146.8" height="24.65" shape-rendering="crispEdges"/><rect fill="#003054" x="1146.8" y="513.9" width="24.4" height="24.65" shape-rendering="crispEdges"/><rect fill="#1e1e1e" x="0" y="538.3" width="1146.8" height="24.65" shape-rendering="crispEdges"/><rect fill="#003054" x="1146.8" y="538.3" width="24.4" height="24.65" shape-rendering="crispEdges"/><rect fill="#1e1e1e" x="0" y="562.7" width="1146.8" height="24.65" shape-rendering="crispEdges"/><rect fill="#003054" x="1146.8" y="562.7" width="24.4" height="24.65" shape-rendering="crispEdges"/><rect fill="#1e1e1e" x="0" y="587.1" width="1146.8" height="24.65" shape-rendering="crispEdges"/><rect fill="#003054" x="1146.8" y="587.1" width="24.4" height="24.65" shape-rendering="crispEdges"/><rect fill="#1e1e1e" x="0" y="611.5" width="231.8" height="24.65" shape-rendering="crispEdges"/><rect fill="#121212" x="231.8" y="611.5" width="12.2" height="24.65" shape-rendering="crispEdges"/><rect fill="#1e1e1e" x="244" y="611.5" width="195.2" height="24.65" shape-rendering="crispEdges"/><rect fill="#121212" x="439.2" y="611.5" width="707.6" height="24.65" shape-rendering="crispEdges"/><rect fill="#003054" x="1146.8" y="611.5" width="24.4" height="24.65" shape-rendering="crispEdges"/><rect fill="#1e1e1e" x="0" y="635.9" width="231.8" height="24.65" shape-rendering="crispEdges"/><rect fill="#121212" x="231.8" y="635.9" width="12.2" height="24.65" shape-rendering="crispEdges"/><rect fill="#1e1e1e" x="244" y="635.9" width="24.4" height="24.65" shape-rendering="crispEdges"/><rect fill="#1e1e1e" x="268.4" y="635.9" width="134.2" height="24.65" shape-rendering="crispEdges"/><rect fill="#1e1e1e" x="402.6" y="635.9" width="36.6" height="24.65" shape-rendering="crispEdges"/><rect fill="#121212" x="439.2" y="635.9" width="707.6" height="24.65" shape-rendering="crispEdges"/><rect fill="#003054" x="1146.8" y="635.9" width="24.4" height="24.65" shape-rendering="crispEdges"/><rect fill="#242f38" x="0" y="660.3" width="36.6" height="24.65" shape-rendering="crispEdges"/><rect fill="#242f38" x="36.6" y="660.3" width="122" height="24.65" shape-rendering="crispEdges"/><rect fill="#242f38" x="158.6" y="660.3" width="36.6" height="24.65" shape-rendering="crispEdges"/><rect fill="#242f38" x="195.2" y="660.3" width="36.6" height="24.65" shape-rendering="crispEdges"/><rect fill="#242f38" x="231.8" y="660.3" width="12.2" height="24.65" shape-rendering="crispEdges"/><rect fill="#242f38" x="244" y="660.3" width="73.2" height="24.65" shape-rendering="crispEdges"/><rect fill="#242f38" x="317.2" y="660.3" width="36.6" height="24.65" shape-rendering="crispEdges"/><rect fill="#242f38" x="353.8" y="660.3" width="85.4" height="24.65" shape-rendering="crispEdges"/><rect fill="#242f38" x="439.2" y="660.3" width="24.4" height="24.65" shape-rendering="crispEdges"/><rect fill="#242f38" x="463.6" y="660.3" width="36.6" height="24.65" shape-rendering="crispEdges"/><rect fill="#242f38" x="500.2" y="660.3" width="170.8" height="24.65" shape-rendering="crispEdges"/><rect fill="#242f38" x="671" y="660.3" width="48.8" height="24.65" shape-rendering="crispEdges"/><rect fill="#242f38" x="719.8" y="660.3" width="85.4" height="24.65" shape-rendering="crispEdges"/><rect fill="#242f38" x="805.2" y="660.3" width="36.6" height="24.65" shape-rendering="crispEdges"/><rect fill="#242f38" x="841.8" y="660.3" width="61" height="24.65" shape-rendering="crispEdges"/><rect fill="#242f38" x="902.8" y="660.3" width="36.6" height="24.65" shape-rendering="crispEdges"/><rect fill="#242f38" x="939.4" y="660.3" width="61" height="24.65" shape-rendering="crispEdges"/><rect fill="#242f38" x="1000.4" y="660.3" width="12.2" height="24.65" shape-rendering="crispEdges"/><rect fill="#242f38" x="1012.6" y="660.3" width="24.4" height="24.65" shape-rendering="crispEdges"/><rect fill="#242f38" x="1037" y="660.3" width="36.6" height="24.65" shape-rendering="crispEdges"/><rect fill="#242f38" x="1073.6" y="660.3" width="61" height="24.65" shape-rendering="crispEdges"/><rect fill="#242f38" x="1134.6" y="660.3" width="12.2" height="24.65" shape-rendering="crispEdges"/><rect fill="#003054" x="1146.8" y="660.3" width="24.4" height="24.65" shape-rendering="crispEdges"/>
    <g class="terminal-1336425759-matrix">
    <text class="terminal-1336425759-r2" x="12.2" y="20" textLength="12.2" clip-path="url(#terminal-1336425759-line-0)">⭘</text><text class="terminal-1336425759-r2" x="500.2" y="20" textLength="122" clip-path="url(#terminal-1336425759-line-0)">AcTuiSense</text><text class="terminal-1336425759-r3" x="1037" y="20" textLength="97.6" clip-path="url(#terminal-1336425759-line-0)">07:52:10</text><text class="terminal-1336425759-r1" x="1171.2" y="20" textLength="12.2" clip-path="url(#terminal-1336425759-line-0)">
</text><text class="terminal-1336425759-r5" x="12.2" y="44.4" textLength="585.6" clip-path="url(#terminal-1336425759-line-1)">/dev/ttyUSB0&#160;@115200&#160;&#160;&#160;mode=RX_ALL&#160;&#160;&#160;RX:9&#160;&#160;TX:14</text><text class="terminal-1336425759-r1" x="1171.2" y="44.4" textLength="12.2" clip-path="url(#terminal-1336425759-line-1)">
</text><text class="terminal-1336425759-r6" x="12.2" y="68.8" textLength="122" clip-path="url(#terminal-1336425759-line-2)">PGN&#160;Filter</text><text class="terminal-1336425759-r7" x="158.6" y="68.8" textLength="146.4" clip-path="url(#terminal-1336425759-line-2)">Activity&#160;Log</text><text class="terminal-1336425759-r1" x="1171.2" y="68.8" textLength="12.2" clip-path="url(#terminal-1336425759-line-2)">
</text><text class="terminal-1336425759-r8" x="0" y="93.2" textLength="12.2" clip-path="url(#terminal-1336425759-line-3)">╸</text><text class="terminal-1336425759-r9" x="12.2" y="93.2" textLength="122" clip-path="url(#terminal-1336425759-line-3)">━━━━━━━━━━</text><text class="terminal-1336425759-r8" x="134.2" y="93.2" textLength="12.2" clip-path="url(#terminal-1336425759-line-3)">╺</text><text class="terminal-1336425759-r8" x="146.4" y="93.2" textLength="1000.4" clip-path="url(#terminal-1336425759-line-3)">━━━━━━━━━━━━━━━━━━━━━━━━━━━━━━━━━━━━━━━━━━━━━━━━━━━━━━━━━━━━━━━━━━━━━━━━━━━━━━━━━━</text><text class="terminal-1336425759-r1" x="1171.2" y="93.2" textLength="12.2" clip-path="url(#terminal-1336425759-line-3)">
</text><text class="terminal-1336425759-r10" x="0" y="117.6" textLength="97.6" clip-path="url(#terminal-1336425759-line-4)">&#160;Li…&#160;&#160;&#160;&#160;</text><text class="terminal-1336425759-r10" x="97.6" y="117.6" textLength="146.4" clip-path="url(#terminal-1336425759-line-4)">&#160;Time&#160;&#160;&#160;&#160;&#160;&#160;&#160;</text><text class="terminal-1336425759-r10" x="244" y="117.6" textLength="439.2" clip-path="url(#terminal-1336425759-line-4)">&#160;Action&#160;&#160;&#160;&#160;&#160;&#160;&#160;&#160;&#160;&#160;&#160;&#160;&#160;&#160;&#160;&#160;&#160;&#160;&#160;&#160;&#160;&#160;&#160;&#160;&#160;&#160;&#160;&#160;&#160;</text><text class="terminal-1336425759-r10" x="683.2" y="117.6" textLength="146.4" clip-path="url(#terminal-1336425759-line-4)">&#160;Result&#160;&#160;&#160;&#160;&#160;</text><text class="terminal-1336425759-r10" x="829.6" y="117.6" textLength="97.6" clip-path="url(#terminal-1336425759-line-4)">&#160;Detail&#160;</text><text class="terminal-1336425759-r1" x="1171.2" y="117.6" textLength="12.2" clip-path="url(#terminal-1336425759-line-4)">
</text><text class="terminal-1336425759-r2" x="0" y="142" textLength="97.6" clip-path="url(#terminal-1336425759-line-5)">&#160;1&#160;&#160;&#160;&#160;&#160;&#160;</text><text class="terminal-1336425759-r2" x="97.6" y="142" textLength="146.4" clip-path="url(#terminal-1336425759-line-5)">&#160;07:45:31&#160;&#160;&#160;</text><text class="terminal-1336425759-r2" x="244" y="142" textLength="439.2" clip-path="url(#terminal-1336425759-line-5)">&#160;Get&#160;Operating&#160;Mode&#160;&#160;&#160;&#160;&#160;&#160;&#160;&#160;&#160;&#160;&#160;&#160;&#160;&#160;&#160;&#160;&#160;</text><text class="terminal-1336425759-r2" x="683.2" y="142" textLength="146.4" clip-path="url(#terminal-1336425759-line-5)">&#160;OK&#160;&#160;&#160;&#160;&#160;&#160;&#160;&#160;&#160;</text><text class="terminal-1336425759-r1" x="1171.2" y="142" textLength="12.2" clip-path="url(#terminal-1336425759-line-5)">
</text><text class="terminal-1336425759-r2" x="0" y="166.4" textLength="97.6" clip-path="url(#terminal-1336425759-line-6)">&#160;2&#160;&#160;&#160;&#160;&#160;&#160;</text><text class="terminal-1336425759-r2" x="97.6" y="166.4" textLength="146.4" clip-path="url(#terminal-1336425759-line-6)">&#160;07:45:32&#160;&#160;&#160;</text><text class="terminal-1336425759-r2" x="244" y="166.4" textLength="439.2" clip-path="url(#terminal-1336425759-line-6)">&#160;Get&#160;RX&#160;PGN&#160;List&#160;&#160;&#160;&#160;&#160;&#160;&#160;&#160;&#160;&#160;&#160;&#160;&#160;&#160;&#160;&#160;&#160;&#160;&#160;&#160;</text><text class="terminal-1336425759-r11" x="695.4" y="166.4" textLength="24.4" clip-path="url(#terminal-1336425759-line-6)">OK</text><text class="terminal-1336425759-r1" x="1171.2" y="166.4" textLength="12.2" clip-path="url(#terminal-1336425759-line-6)">
</text><text class="terminal-1336425759-r2" x="0" y="190.8" textLength="97.6" clip-path="url(#terminal-1336425759-line-7)">&#160;3&#160;&#160;&#160;&#160;&#160;&#160;</text><text class="terminal-1336425759-r2" x="97.6" y="190.8" textLength="146.4" clip-path="url(#terminal-1336425759-line-7)">&#160;07:45:33&#160;&#160;&#160;</text><text class="terminal-1336425759-r2" x="244" y="190.8" textLength="439.2" clip-path="url(#terminal-1336425759-line-7)">&#160;Get&#160;TX&#160;PGN&#160;List&#160;&#160;&#160;&#160;&#160;&#160;&#160;&#160;&#160;&#160;&#160;&#160;&#160;&#160;&#160;&#160;&#160;&#160;&#160;&#160;</text><text class="terminal-1336425759-r11" x="695.4" y="190.8" textLength="24.4" clip-path="url(#terminal-1336425759-line-7)">OK</text><text class="terminal-1336425759-r1" x="1171.2" y="190.8" textLength="12.2" clip-path="url(#terminal-1336425759-line-7)">
</text><text class="terminal-1336425759-r2" x="0" y="215.2" textLength="97.6" clip-path="url(#terminal-1336425759-line-8)">&#160;4&#160;&#160;&#160;&#160;&#160;&#160;</text><text class="terminal-1336425759-r2" x="97.6" y="215.2" textLength="146.4" clip-path="url(#terminal-1336425759-line-8)">&#160;07:45:34&#160;&#160;&#160;</text><text class="terminal-1336425759-r2" x="244" y="215.2" textLength="439.2" clip-path="url(#terminal-1336425759-line-8)">&#160;Enable&#160;TX&#160;PGN&#160;127514&#160;&#160;&#160;&#160;&#160;&#160;&#160;&#160;&#160;&#160;&#160;&#160;&#160;&#160;&#160;</text><text class="terminal-1336425759-r11" x="695.4" y="215.2" textLength="24.4" clip-path="url(#terminal-1336425759-line-8)">OK</text><text class="terminal-1336425759-r1" x="1171.2" y="215.2" textLength="12.2" clip-path="url(#terminal-1336425759-line-8)">
</text><text class="terminal-1336425759-r2" x="0" y="239.6" textLength="97.6" clip-path="url(#terminal-1336425759-line-9)">&#160;5&#160;&#160;&#160;&#160;&#160;&#160;</text><text class="terminal-1336425759-r2" x="97.6" y="239.6" textLength="146.4" clip-path="url(#terminal-1336425759-line-9)">&#160;07:45:35&#160;&#160;&#160;</text><text class="terminal-1336425759-r2" x="244" y="239.6" textLength="439.2" clip-path="url(#terminal-1336425759-line-9)">&#160;Enable&#160;TX&#160;PGN&#160;127751&#160;&#160;&#160;&#160;&#160;&#160;&#160;&#160;&#160;&#160;&#160;&#160;&#160;&#160;&#160;</text><text class="terminal-1336425759-r11" x="695.4" y="239.6" textLength="24.4" clip-path="url(#terminal-1336425759-line-9)">OK</text><text class="terminal-1336425759-r1" x="1171.2" y="239.6" textLength="12.2" clip-path="url(#terminal-1336425759-line-9)">
</text><text class="terminal-1336425759-r2" x="0" y="264" textLength="97.6" clip-path="url(#terminal-1336425759-line-10)">&#160;6&#160;&#160;&#160;&#160;&#160;&#160;</text><text class="terminal-1336425759-r2" x="97.6" y="264" textLength="146.4" clip-path="url(#terminal-1336425759-line-10)">&#160;07:45:36&#160;&#160;&#160;</text><text class="terminal-1336425759-r2" x="244" y="264" textLength="439.2" clip-path="url(#terminal-1336425759-line-10)">&#160;Activate&#160;Enable&#160;Lists&#160;&#160;&#160;&#160;&#160;&#160;&#160;&#160;&#160;&#160;&#160;&#160;&#160;&#160;</text><text class="terminal-1336425759-r11" x="695.4" y="264" textLength="24.4" clip-path="url(#terminal-1336425759-line-10)">OK</text><text class="terminal-1336425759-r1" x="1171.2" y="264" textLength="12.2" clip-path="url(#terminal-1336425759-line-10)">
</text><text class="terminal-1336425759-r2" x="0" y="288.4" textLength="97.6" clip-path="url(#terminal-1336425759-line-11)">&#160;7&#160;&#160;&#160;&#160;&#160;&#160;</text><text class="terminal-1336425759-r2" x="97.6" y="288.4" textLength="146.4" clip-path="url(#terminal-1336425759-line-11)">&#160;07:45:37&#160;&#160;&#160;</text><text class="terminal-1336425759-r2" x="244" y="288.4" textLength="439.2" clip-path="url(#terminal-1336425759-line-11)">&#160;Get&#160;Operating&#160;Mode&#160;&#160;&#160;&#160;&#160;&#160;&#160;&#160;&#160;&#160;&#160;&#160;&#160;&#160;&#160;&#160;&#160;</text><text class="terminal-1336425759-r11" x="695.4" y="288.4" textLength="24.4" clip-path="url(#terminal-1336425759-line-11)">OK</text><text class="terminal-1336425759-r1" x="1171.2" y="288.4" textLength="12.2" clip-path="url(#terminal-1336425759-line-11)">
</text><text class="terminal-1336425759-r2" x="0" y="312.8" textLength="97.6" clip-path="url(#terminal-1336425759-line-12)">&#160;8&#160;&#160;&#160;&#160;&#160;&#160;</text><text class="terminal-1336425759-r2" x="97.6" y="312.8" textLength="146.4" clip-path="url(#terminal-1336425759-line-12)">&#160;07:45:38&#160;&#160;&#160;</text><text class="terminal-1336425759-r2" x="244" y="312.8" textLength="439.2" clip-path="url(#terminal-1336425759-line-12)">&#160;Commit&#160;to&#160;EEPROM&#160;&#160;&#160;&#160;&#160;&#160;&#160;&#160;&#160;&#160;&#160;&#160;&#160;&#160;&#160;&#160;&#160;&#160;&#160;</text><text class="terminal-1336425759-r11" x="695.4" y="312.8" textLength="24.4" clip-path="url(#terminal-1336425759-line-12)">OK</text><text class="terminal-1336425759-r1" x="1171.2" y="312.8" textLength="12.2" clip-path="url(#terminal-1336425759-line-12)">
</text><text class="terminal-1336425759-r2" x="0" y="337.2" textLength="97.6" clip-path="url(#terminal-1336425759-line-13)">&#160;9&#160;&#160;&#160;&#160;&#160;&#160;</text><text class="terminal-1336425759-r2" x="97.6" y="337.2" textLength="146.4" clip-path="url(#terminal-1336425759-line-13)">&#160;07:45:39&#160;&#160;&#160;</text><text class="terminal-1336425759-r2" x="244" y="337.2" textLength="439.2" clip-path="url(#terminal-1336425759-line-13)">&#160;Get&#160;Operating&#160;Mode&#160;&#160;&#160;&#160;&#160;&#160;&#160;&#160;&#160;&#160;&#160;&#160;&#160;&#160;&#160;&#160;&#160;</text><text class="terminal-1336425759-r11" x="695.4" y="337.2" textLength="24.4" clip-path="url(#terminal-1336425759-line-13)">OK</text><text class="terminal-1336425759-r1" x="1171.2" y="337.2" textLength="12.2" clip-path="url(#terminal-1336425759-line-13)">
</text><text class="terminal-1336425759-r2" x="0" y="361.6" textLength="97.6" clip-path="url(#terminal-1336425759-line-14)">&#160;10&#160;&#160;&#160;&#160;&#160;</text><text class="terminal-1336425759-r2" x="97.6" y="361.6" textLength="146.4" clip-path="url(#terminal-1336425759-line-14)">&#160;07:45:40&#160;&#160;&#160;</text><text class="terminal-1336425759-r2" x="244" y="361.6" textLength="439.2" clip-path="url(#terminal-1336425759-line-14)">&#160;Disable&#160;RX&#160;PGN&#160;130306&#160;&#160;&#160;&#160;&#160;&#160;&#160;&#160;&#160;&#160;&#160;&#160;&#160;&#160;</text><text class="terminal-1336425759-r11" x="695.4" y="361.6" textLength="24.4" clip-path="url(#terminal-1336425759-line-14)">OK</text><text class="terminal-1336425759-r1" x="1171.2" y="361.6" textLength="12.2" clip-path="url(#terminal-1336425759-line-14)">
</text><text class="terminal-1336425759-r2" x="0" y="386" textLength="97.6" clip-path="url(#terminal-1336425759-line-15)">&#160;11&#160;&#160;&#160;&#160;&#160;</text><text class="terminal-1336425759-r2" x="97.6" y="386" textLength="146.4" clip-path="url(#terminal-1336425759-line-15)">&#160;07:45:41&#160;&#160;&#160;</text><text class="terminal-1336425759-r2" x="244" y="386" textLength="439.2" clip-path="url(#terminal-1336425759-line-15)">&#160;Get&#160;Operating&#160;Mode&#160;&#160;&#160;&#160;&#160;&#160;&#160;&#160;&#160;&#160;&#160;&#160;&#160;&#160;&#160;&#160;&#160;</text><text class="terminal-1336425759-r12" x="695.4" y="386" textLength="85.4" clip-path="url(#terminal-1336425759-line-15)">Timeout</text><text class="terminal-1336425759-r2" x="829.6" y="386" textLength="97.6" clip-path="url(#terminal-1336425759-line-15)">&#160;500ms&#160;&#160;</text><text class="terminal-1336425759-r1" x="1171.2" y="386" textLength="12.2" clip-path="url(#terminal-1336425759-line-15)">
</text><text class="terminal-1336425759-r2" x="0" y="410.4" textLength="97.6" clip-path="url(#terminal-1336425759-line-16)">&#160;12&#160;&#160;&#160;&#160;&#160;</text><text class="terminal-1336425759-r2" x="97.6" y="410.4" textLength="146.4" clip-path="url(#terminal-1336425759-line-16)">&#160;07:45:42&#160;&#160;&#160;</text><text class="terminal-1336425759-r2" x="244" y="410.4" textLength="439.2" clip-path="url(#terminal-1336425759-line-16)">&#160;Get&#160;Operating&#160;Mode&#160;&#160;&#160;&#160;&#160;&#160;&#160;&#160;&#160;&#160;&#160;&#160;&#160;&#160;&#160;&#160;&#160;</text><text class="terminal-1336425759-r11" x="695.4" y="410.4" textLength="24.4" clip-path="url(#terminal-1336425759-line-16)">OK</text><text class="terminal-1336425759-r1" x="1171.2" y="410.4" textLength="12.2" clip-path="url(#terminal-1336425759-line-16)">
</text><text class="terminal-1336425759-r1" x="1171.2" y="434.8" textLength="12.2" clip-path="url(#terminal-1336425759-line-17)">
</text><text class="terminal-1336425759-r1" x="1171.2" y="459.2" textLength="12.2" clip-path="url(#terminal-1336425759-line-18)">
</text><text class="terminal-1336425759-r1" x="1171.2" y="483.6" textLength="12.2" clip-path="url(#terminal-1336425759-line-19)">
</text><text class="terminal-1336425759-r1" x="1171.2" y="508" textLength="12.2" clip-path="url(#terminal-1336425759-line-20)">
</text><text class="terminal-1336425759-r1" x="1171.2" y="532.4" textLength="12.2" clip-path="url(#terminal-1336425759-line-21)">
</text><text class="terminal-1336425759-r1" x="1171.2" y="556.8" textLength="12.2" clip-path="url(#terminal-1336425759-line-22)">
</text><text class="terminal-1336425759-r1" x="1171.2" y="581.2" textLength="12.2" clip-path="url(#terminal-1336425759-line-23)">
</text><text class="terminal-1336425759-r1" x="1171.2" y="605.6" textLength="12.2" clip-path="url(#terminal-1336425759-line-24)">
</text><text class="terminal-1336425759-r13" x="0" y="630" textLength="231.8" clip-path="url(#terminal-1336425759-line-25)">▔▔▔▔▔▔▔▔▔▔▔▔▔▔▔▔▔▔▔</text><text class="terminal-1336425759-r13" x="244" y="630" textLength="195.2" clip-path="url(#terminal-1336425759-line-25)">▔▔▔▔▔▔▔▔▔▔▔▔▔▔▔▔</text><text class="terminal-1336425759-r1" x="1171.2" y="630" textLength="12.2" clip-path="url(#terminal-1336425759-line-25)">
</text><text class="terminal-1336425759-r10" x="0" y="654.4" textLength="231.8" clip-path="url(#terminal-1336425759-line-26)">&#160;Pause&#160;polling&#160;(p)&#160;</text><text class="terminal-1336425759-r10" x="268.4" y="654.4" textLength="134.2" clip-path="url(#terminal-1336425759-line-26)">&#160;Clear&#160;log&#160;</text><text class="terminal-1336425759-r1" x="1171.2" y="654.4" textLength="12.2" clip-path="url(#terminal-1336425759-line-26)">
</text><text class="terminal-1336425759-r14" x="0" y="678.8" textLength="36.6" clip-path="url(#terminal-1336425759-line-27)">&#160;r&#160;</text><text class="terminal-1336425759-r2" x="36.6" y="678.8" textLength="122" clip-path="url(#terminal-1336425759-line-27)">Toggle&#160;RX&#160;</text><text class="terminal-1336425759-r14" x="158.6" y="678.8" textLength="36.6" clip-path="url(#terminal-1336425759-line-27)">&#160;t&#160;</text><text class="terminal-1336425759-r2" x="195.2" y="678.8" textLength="36.6" clip-path="url(#terminal-1336425759-line-27)">Tog</text><text class="terminal-1336425759-r2" x="231.8" y="678.8" textLength="12.2" clip-path="url(#terminal-1336425759-line-27)">g</text><text class="terminal-1336425759-r2" x="244" y="678.8" textLength="73.2" clip-path="url(#terminal-1336425759-line-27)">le&#160;TX&#160;</text><text class="terminal-1336425759-r14" x="317.2" y="678.8" textLength="36.6" clip-path="url(#terminal-1336425759-line-27)">&#160;a&#160;</text><text class="terminal-1336425759-r2" x="353.8" y="678.8" textLength="85.4" clip-path="url(#terminal-1336425759-line-27)">Activat</text><text class="terminal-1336425759-r2" x="439.2" y="678.8" textLength="24.4" clip-path="url(#terminal-1336425759-line-27)">e&#160;</text><text class="terminal-1336425759-r14" x="463.6" y="678.8" textLength="36.6" clip-path="url(#terminal-1336425759-line-27)">&#160;c&#160;</text><text class="terminal-1336425759-r2" x="500.2" y="678.8" textLength="170.8" clip-path="url(#terminal-1336425759-line-27)">Commit&#160;EEPROM&#160;</text><text class="terminal-1336425759-r14" x="671" y="678.8" textLength="48.8" clip-path="url(#terminal-1336425759-line-27)">&#160;f5&#160;</text><text class="terminal-1336425759-r2" x="719.8" y="678.8" textLength="85.4" clip-path="url(#terminal-1336425759-line-27)">Reload&#160;</text><text class="terminal-1336425759-r14" x="805.2" y="678.8" textLength="36.6" clip-path="url(#terminal-1336425759-line-27)">&#160;m&#160;</text><text class="terminal-1336425759-r2" x="841.8" y="678.8" textLength="61" clip-path="url(#terminal-1336425759-line-27)">Mode&#160;</text><text class="terminal-1336425759-r14" x="902.8" y="678.8" textLength="36.6" clip-path="url(#terminal-1336425759-line-27)">&#160;p&#160;</text><text class="terminal-1336425759-r2" x="939.4" y="678.8" textLength="61" clip-path="url(#terminal-1336425759-line-27)">Pause</text><text class="terminal-1336425759-r15" x="1000.4" y="678.8" textLength="12.2" clip-path="url(#terminal-1336425759-line-27)">▏</text><text class="terminal-1336425759-r14" x="1012.6" y="678.8" textLength="24.4" clip-path="url(#terminal-1336425759-line-27)">^p</text><text class="terminal-1336425759-r2" x="1037" y="678.8" textLength="36.6" clip-path="url(#terminal-1336425759-line-27)">&#160;pa</text><text class="terminal-1336425759-r2" x="1073.6" y="678.8" textLength="61" clip-path="url(#terminal-1336425759-line-27)">lette</text><text class="terminal-1336425759-r16" x="1146.8" y="678.8" textLength="24.4" clip-path="url(#terminal-1336425759-line-27)">▇▇</text>
    </g>
    </g>
</svg>
